<svg width="305" height="142" viewBox="0 0 305 142" fill="none" xmlns="http://www.w3.org/2000/svg">
<path d="M63.6931 16.3925C66.5119 10.0686 75.4881 10.0686 78.3069 16.3925L88.7358 39.7887C89.8984 42.3969 92.3632 44.1877 95.2031 44.4874L120.677 47.176C127.562 47.9027 130.336 56.4396 125.193 61.0747L106.164 78.2229C104.043 80.1346 103.102 83.0322 103.694 85.8256L109.009 110.884C110.446 117.657 103.184 122.933 97.1861 119.473L74.997 106.675C72.5233 105.249 69.4767 105.249 67.003 106.675L44.8139 119.473C38.8163 122.933 31.5545 117.657 32.9911 110.884L38.3059 85.8256C38.8984 83.0322 37.9569 80.1346 35.8356 78.2229L16.8072 61.0747C11.6639 56.4395 14.4377 47.9027 21.3231 47.176L46.7969 44.4874C49.6368 44.1877 52.1016 42.3969 53.2642 39.7887L63.6931 16.3925Z" fill="#FF6B6C"/>
<path d="M226.613 17.7594C229.346 11.1891 238.654 11.1891 241.387 17.7594L250.903 40.6402C252.055 43.4101 254.66 45.3027 257.65 45.5424L282.352 47.5227C289.445 48.0914 292.322 56.9434 286.917 61.5728L268.097 77.6942C265.819 79.6458 264.824 82.7081 265.52 85.6261L271.27 109.731C272.921 116.653 265.391 122.123 259.318 118.414L238.17 105.497C235.61 103.933 232.39 103.933 229.83 105.497L208.682 118.414C202.609 122.123 195.079 116.653 196.73 109.731L202.48 85.6261C203.176 82.7081 202.181 79.6458 199.903 77.6942L181.083 61.5728C175.678 56.9435 178.555 48.0914 185.648 47.5227L210.35 45.5424C213.34 45.3027 215.945 43.4101 217.097 40.6402L226.613 17.7594Z" fill="#FF6B6C"/>
</svg>
